<svg width="32" height="32" viewBox="0 0 32 32" fill="none" xmlns="http://www.w3.org/2000/svg">
<g clip-path="url(#clip0_26_99)">
<circle cx="16" cy="16" r="15.95" fill="#2F2F2E"/>
<mask id="path-2-outside-1_26_99" maskUnits="userSpaceOnUse" x="7.57141" y="7" width="18" height="18" fill="black">
<rect fill="white" x="7.57141" y="7" width="18" height="18"/>
<path fill-rule="evenodd" clip-rule="evenodd" d="M9.68389 8.50886L10.3842 8L13.4698 12.2467L12.7694 12.7555L9.68389 8.50886ZM20.1936 9.35074L18.0846 12.2534L18.785 12.7622L20.894 9.8596L20.1936 9.35074ZM20.2063 17.1464L19.9388 17.9698L24.3031 19.3877L24.5706 18.5644L20.2063 17.1464ZM11.3557 17.1482L8.57141 18.0528L8.83891 18.8761L11.6232 17.9716L11.3557 17.1482ZM15.3467 20.6918H16.2124V24.0595H15.3467V20.6918Z"/>
</mask>
<path fill-rule="evenodd" clip-rule="evenodd" d="M9.68389 8.50886L10.3842 8L13.4698 12.2467L12.7694 12.7555L9.68389 8.50886ZM20.1936 9.35074L18.0846 12.2534L18.785 12.7622L20.894 9.8596L20.1936 9.35074ZM20.2063 17.1464L19.9388 17.9698L24.3031 19.3877L24.5706 18.5644L20.2063 17.1464ZM11.3557 17.1482L8.57141 18.0528L8.83891 18.8761L11.6232 17.9716L11.3557 17.1482ZM15.3467 20.6918H16.2124V24.0595H15.3467V20.6918Z" fill="white"/>
<path d="M10.3842 8L10.6152 7.83218L10.4474 7.6012L10.2164 7.76902L10.3842 8ZM9.68389 8.50886L9.51607 8.27789L9.28509 8.44571L9.45291 8.67669L9.68389 8.50886ZM13.4698 12.2467L13.6376 12.4777L13.8686 12.3098L13.7008 12.0789L13.4698 12.2467ZM12.7694 12.7555L12.5384 12.9234L12.7063 13.1543L12.9372 12.9865L12.7694 12.7555ZM18.0846 12.2534L17.8537 12.0855L17.6858 12.3165L17.9168 12.4843L18.0846 12.2534ZM20.1936 9.35074L20.3614 9.11976L20.1305 8.95194L19.9626 9.18291L20.1936 9.35074ZM18.785 12.7622L18.6172 12.9932L18.8481 13.161L19.016 12.9301L18.785 12.7622ZM20.894 9.8596L21.125 10.0274L21.2928 9.79645L21.0618 9.62862L20.894 9.8596ZM19.9388 17.9698L19.6672 17.8816L19.579 18.1531L19.8505 18.2413L19.9388 17.9698ZM20.2063 17.1464L20.2945 16.8749L20.023 16.7867L19.9347 17.0582L20.2063 17.1464ZM24.3031 19.3877L24.2149 19.6593L24.4864 19.7475L24.5747 19.476L24.3031 19.3877ZM24.5706 18.5644L24.8422 18.6526L24.9304 18.381L24.6588 18.2928L24.5706 18.5644ZM8.57141 18.0528L8.48319 17.7812L8.21166 17.8694L8.29987 18.141L8.57141 18.0528ZM11.3557 17.1482L11.6272 17.06L11.539 16.7884L11.2674 16.8767L11.3557 17.1482ZM8.83891 18.8761L8.56738 18.9644L8.6556 19.2359L8.92713 19.1477L8.83891 18.8761ZM11.6232 17.9716L11.7114 18.2431L11.9829 18.1549L11.8947 17.8833L11.6232 17.9716ZM16.2124 20.6918H16.4979V20.4062H16.2124V20.6918ZM15.3467 20.6918V20.4062H15.0611V20.6918H15.3467ZM16.2124 24.0595V24.345H16.4979V24.0595H16.2124ZM15.3467 24.0595H15.0611V24.345H15.3467V24.0595ZM10.2164 7.76902L9.51607 8.27789L9.85171 8.73984L10.5521 8.23098L10.2164 7.76902ZM13.7008 12.0789L10.6152 7.83218L10.1533 8.16782L13.2388 12.4145L13.7008 12.0789ZM12.9372 12.9865L13.6376 12.4777L13.302 12.0157L12.6016 12.5246L12.9372 12.9865ZM9.45291 8.67669L12.5384 12.9234L13.0004 12.5877L9.91487 8.34104L9.45291 8.67669ZM18.3156 12.4212L20.4246 9.51856L19.9626 9.18291L17.8537 12.0855L18.3156 12.4212ZM18.9528 12.5313L18.2525 12.0224L17.9168 12.4843L18.6172 12.9932L18.9528 12.5313ZM20.663 9.69178L18.554 12.5944L19.016 12.9301L21.125 10.0274L20.663 9.69178ZM20.0258 9.58171L20.7262 10.0906L21.0618 9.62862L20.3614 9.11976L20.0258 9.58171ZM20.2103 18.058L20.4778 17.2347L19.9347 17.0582L19.6672 17.8816L20.2103 18.058ZM24.3913 19.1162L20.027 17.6983L19.8505 18.2413L24.2149 19.6593L24.3913 19.1162ZM24.2991 18.4761L24.0316 19.2995L24.5747 19.476L24.8422 18.6526L24.2991 18.4761ZM20.118 17.418L24.4824 18.8359L24.6588 18.2928L20.2945 16.8749L20.118 17.418ZM8.65963 18.3243L11.4439 17.4197L11.2674 16.8767L8.48319 17.7812L8.65963 18.3243ZM9.11045 18.7879L8.84295 17.9645L8.29987 18.141L8.56738 18.9644L9.11045 18.7879ZM11.5349 17.7L8.7507 18.6046L8.92713 19.1477L11.7114 18.2431L11.5349 17.7ZM11.0841 17.2364L11.3516 18.0598L11.8947 17.8833L11.6272 17.06L11.0841 17.2364ZM16.2124 20.4062H15.3467V20.9773H16.2124V20.4062ZM16.4979 24.0595V20.6918H15.9269V24.0595H16.4979ZM15.3467 24.345H16.2124V23.774H15.3467V24.345ZM15.0611 20.6918V24.0595H15.6322V20.6918H15.0611Z" fill="white" mask="url(#path-2-outside-1_26_99)"/>
</g>
<defs>
<clipPath id="clip0_26_99">
<rect width="32" height="32" fill="white"/>
</clipPath>
</defs>
</svg>
